<svg viewBox="0 0 760 470" xmlns="http://www.w3.org/2000/svg" role="img" aria-label="The VAT wire cut" style="width:100%;height:auto;font-family:system-ui,sans-serif">
<rect width="100%" height="100%" fill="var(--frame-bg,#0B1220)" rx="12"/>
<line x1="60.8" y1="402.8" x2="72.8" y2="239.0" stroke="#0EA5E9" stroke-width="1.24" stroke-opacity="0.92"/>
<text x="66.8" y="314.9" fill="#0EA5E9" font-size="9" text-anchor="middle" opacity=".75">× price</text>
<line x1="60.8" y1="75.2" x2="72.8" y2="239.0" stroke="#0EA5E9" stroke-width="1.24" stroke-opacity="0.92"/>
<text x="66.8" y="151.1" fill="#0EA5E9" font-size="9" text-anchor="middle" opacity=".75">× qty</text>
<line x1="72.8" y1="239.0" x2="699.2" y2="239.0" stroke="#475569" stroke-width="1.00" stroke-opacity="0.35" stroke-dasharray="4 6"/>
<line x1="72.8" y1="239.0" x2="662.1" y2="272.5" stroke="#0EA5E9" stroke-width="1.77" stroke-opacity="0.80"/>
<text x="367.4" y="249.8" fill="#0EA5E9" font-size="9" text-anchor="middle" opacity=".75">+ VAT</text>
<line x1="699.2" y1="239.0" x2="662.1" y2="272.5" stroke="#0EA5E9" stroke-width="1.35" stroke-opacity="0.90"/>
<text x="680.6" y="249.8" fill="#0EA5E9" font-size="9" text-anchor="middle" opacity=".75">cross-check</text>
<line x1="668.8" y1="174.0" x2="668.8" y2="304.0" stroke="#475569" stroke-width="1.00" stroke-opacity="0.35" stroke-dasharray="4 6"/>
<g opacity="1.00"><rect x="23.8" y="383.8" width="74" height="38" rx="9" fill="#0F172A" stroke="#0EA5E9" stroke-width="1.4"/><text x="60.8" y="398.8" fill="#94A3B8" font-size="9" text-anchor="middle">Quantity</text><text x="60.8" y="413.8" fill="#0EA5E9" font-size="13" font-weight="650" text-anchor="middle" font-family="ui-monospace,monospace">12</text></g>
<g opacity="1.00"><rect x="21.8" y="56.2" width="78" height="38" rx="9" fill="#0F172A" stroke="#0EA5E9" stroke-width="1.4"/><text x="60.8" y="71.2" fill="#94A3B8" font-size="9" text-anchor="middle">Unit price</text><text x="60.8" y="86.2" fill="#0EA5E9" font-size="13" font-weight="650" text-anchor="middle" font-family="ui-monospace,monospace">4.5</text></g>
<g opacity="1.00"><rect x="35.8" y="220.0" width="74" height="38" rx="9" fill="#0F172A" stroke="#0EA5E9" stroke-width="1.4"/><text x="72.8" y="235.0" fill="#94A3B8" font-size="9" text-anchor="middle">Net</text><text x="72.8" y="250.0" fill="#0EA5E9" font-size="13" font-weight="650" text-anchor="middle" font-family="ui-monospace,monospace">54.0</text></g>
<g opacity="0.85"><rect x="662.2" y="220.0" width="74" height="38" rx="9" fill="#0F172A" stroke="#D97706" stroke-width="1.4"/><text x="699.2" y="235.0" fill="#94A3B8" font-size="9" text-anchor="middle">VAT 20%</text><text x="699.2" y="250.0" fill="#D97706" font-size="13" font-weight="650" text-anchor="middle" font-family="ui-monospace,monospace">—</text></g>
<g opacity="1.00"><rect x="625.1" y="253.5" width="74" height="38" rx="9" fill="#0F172A" stroke="#0EA5E9" stroke-width="1.4"/><text x="662.1" y="268.5" fill="#94A3B8" font-size="9" text-anchor="middle">Total due</text><text x="662.1" y="283.5" fill="#0EA5E9" font-size="13" font-weight="650" text-anchor="middle" font-family="ui-monospace,monospace">64.8</text></g>
<g opacity="0.45"><rect x="619.3" y="155.0" width="99" height="38" rx="9" fill="#0F172A" stroke="#475569" stroke-width="1.4"/><text x="668.8" y="170.0" fill="#94A3B8" font-size="9" text-anchor="middle">Payment terms</text><text x="668.8" y="185.0" fill="#475569" font-size="13" font-weight="650" text-anchor="middle" font-family="ui-monospace,monospace">—</text></g>
<g opacity="0.45"><rect x="631.8" y="285.0" width="74" height="38" rx="9" fill="#0F172A" stroke="#475569" stroke-width="1.4"/><text x="668.8" y="300.0" fill="#94A3B8" font-size="9" text-anchor="middle">Late fee</text><text x="668.8" y="315.0" fill="#475569" font-size="13" font-weight="650" text-anchor="middle" font-family="ui-monospace,monospace">—</text></g>
<text x="14" y="22" fill="#E2E8F0" font-size="12" font-weight="650">The VAT wire cut</text>
<rect x="0" y="444" width="760" height="26" fill="#0B1220" opacity=".92"/><text x="14" y="461" fill="#64748B" font-size="10">VAT is unreachable — no value is shown rather than a stale one</text>
</svg>